<svg width="56" height="39" viewBox="0 0 56 39" fill="none" xmlns="http://www.w3.org/2000/svg">
<path d="M24.5645 39C19.0938 38.3932 17.3239 35.2489 17.3239 31.9943C17.3239 28.6294 19.3083 26.5332 19.3083 23.2235C19.3083 21.1273 18.3429 19.5276 14.803 19.5276H11.6386L4.0762 38.4484H1.50176C0.589977 35.4144 0 32.4908 0 29.6223C0 14.5078 10.6196 8.77086 13.6767 0.386137C15.5539 0.386137 20.5955 0 24.8863 0C31.6978 0 35.2377 3.08911 35.2377 7.94342C35.2377 14.6733 27.8362 17.9279 20.7564 18.4243C26.2808 19.3621 28.2652 22.2306 28.2652 25.761C28.2652 31.6082 23.0627 33.0424 23.0627 35.5248C23.0627 36.6832 24.2963 37.1245 25.3154 37.1796L24.5645 39ZM16.7875 3.03395C15.983 7.77793 14.4276 12.3564 12.7649 16.7694H15.393C22.3118 16.7694 23.5991 15.0594 25.4763 11.2532C26.7098 8.77086 27.6216 8.05375 27.6216 5.9024C27.6216 4.19236 26.4417 2.70297 22.7945 2.70297C20.7564 2.70297 19.2547 2.75813 16.7875 3.03395Z" fill="#2E2E2E"/>
<path d="M49.5103 30.174C49.9393 36.0212 46.024 39 40.4461 39C34.1172 39 30.6846 35.9661 30.6846 30.0636C30.6846 20.024 41.5188 12.5219 48.7057 12.5219C53.4256 12.5219 56 14.5078 56 18.2588C56 21.4031 53.6937 23.7751 50.5293 25.1542C47.5258 26.4781 43.825 26.6987 40.1779 26.7539C37.3889 31.553 35.9408 31.1669 35.9408 33.7595C35.9408 35.5799 37.6571 36.6832 40.2315 36.6832C44.9513 36.6832 47.3113 34.4767 47.5794 30.174H49.5103ZM47.4185 14.1216C43.8787 14.1216 44.7368 17.7624 41.0897 25.2093C43.6105 25.2093 45.2195 24.3819 46.3458 23.3338C47.4185 22.2857 47.9549 20.9618 48.3303 19.9689C49.5103 16.6591 49.5639 14.1216 47.4185 14.1216Z" fill="#2E2E2E"/>
</svg>
