<svg width="820" height="442" viewBox="0 0 820 442" fill="none" xmlns="http://www.w3.org/2000/svg">
<path d="M412.138 440.216C351.353 433.673 331.687 399.77 331.687 364.678C331.687 328.396 353.737 305.794 353.737 270.107C353.737 247.506 343.01 230.257 303.679 230.257H268.519L184.493 434.268H155.888C145.758 401.555 139.202 370.031 139.202 339.102C139.202 176.131 257.196 114.274 291.164 23.8666C312.022 23.8666 368.039 19.7032 415.713 19.7032C491.396 19.7032 530.728 53.0111 530.728 105.352C530.728 177.916 448.49 213.008 369.827 218.361C431.208 228.472 453.257 259.401 453.257 297.467C453.257 360.515 395.452 375.979 395.452 402.744C395.452 415.235 409.158 419.993 420.481 420.588L412.138 440.216ZM325.728 52.4163C316.789 103.568 299.507 152.935 281.033 200.518H310.234C387.109 200.518 401.411 182.079 422.269 141.039C435.975 114.274 446.106 106.542 446.106 83.3451C446.106 64.9067 432.995 48.8476 392.472 48.8476C369.827 48.8476 353.141 49.4424 325.728 52.4163Z" fill="#FF4A00"/>
<path d="M689.31 345.05C694.077 408.097 650.575 440.216 588.598 440.216C518.278 440.216 480.139 407.503 480.139 343.861C480.139 235.61 600.517 154.719 680.371 154.719C732.813 154.719 761.417 176.131 761.417 216.577C761.417 250.479 735.792 276.055 700.633 290.925C667.261 305.2 626.142 307.579 585.618 308.174C554.63 359.92 538.54 355.756 538.54 383.711C538.54 403.339 557.61 415.235 586.214 415.235C638.656 415.235 664.877 391.443 667.857 345.05H689.31ZM666.069 171.968C626.737 171.968 636.272 211.224 595.749 291.52C623.758 291.52 641.636 282.598 654.15 271.297C666.069 259.996 672.028 245.721 676.2 235.015C689.31 199.328 689.906 171.968 666.069 171.968Z" fill="#FF4A00"/>
<path d="M728.823 395.607C728.823 372.41 746.105 350.998 775.305 350.998C802.122 350.998 820 373.005 820 396.202C820 422.372 802.718 442 775.305 442C746.701 442 728.823 421.777 728.823 395.607Z" fill="#FF4A00"/>
<path d="M239.053 55.6587C236.622 60.0486 233.443 63.6951 229.515 66.5984C225.588 69.5017 221.265 71.5252 216.546 72.6687C211.742 73.7656 206.866 73.996 201.917 73.3599C196.884 72.6771 192.084 71.0757 187.517 68.5556C182.865 65.9888 178.91 62.76 175.654 58.8693C172.445 54.8941 170.07 50.608 168.531 46.011C166.906 41.3673 166.281 36.6138 166.656 31.7504C167.031 26.887 168.41 22.3026 170.795 17.9972C173.226 13.6073 176.382 10.0029 180.263 7.18405C184.19 4.28075 188.555 2.28066 193.359 1.18377C198.125 -0.0442052 203.025 -0.316808 208.058 0.365965C213.138 0.964319 218.003 2.54688 222.656 5.11365C227.223 7.63376 231.135 10.8392 234.391 14.7299C237.563 18.574 239.937 22.8601 241.515 27.5882C243.055 32.1853 243.637 36.9155 243.262 41.7788C242.935 46.5578 241.532 51.1844 239.053 55.6587ZM190.028 64.3201C195.526 67.3536 201.237 68.9063 207.16 68.9782C212.999 69.0034 218.417 67.6945 223.415 65.0512C228.328 62.3614 232.164 58.526 234.923 53.5452C237.729 48.48 238.924 43.1324 238.508 37.5024C238.093 31.8724 236.279 26.5733 233.068 21.605C229.818 16.5056 225.487 12.4625 220.074 9.47572C214.576 6.44226 208.842 4.93179 202.872 4.9443C196.948 4.87238 191.488 6.15803 186.49 8.80124C181.492 11.4444 177.614 15.2564 174.855 20.2372C172.143 25.1336 171.014 30.4624 171.467 36.2234C171.882 41.8534 173.715 47.2181 176.964 52.3175C180.176 57.2858 184.53 61.2867 190.028 64.3201Z" fill="#FF4A00"/>
<path d="M196.219 113.391L132.038 73.9242L134.623 69.7358L198.804 109.202L196.219 113.391ZM116.486 64.3612L106.118 57.9858L108.704 53.7974L119.071 60.1728L116.486 64.3612Z" fill="#FF4A00"/>
<path d="M112.981 182.517C106.668 179.373 101.543 175.15 97.6053 169.847C93.7108 164.458 91.3288 158.636 90.4591 152.382C89.503 146.085 90.5136 139.958 93.491 134.002C96.5114 127.96 100.83 123.427 106.446 120.403C111.976 117.336 117.593 115.605 123.298 115.212L80.7504 94.0234L82.9511 89.6214L170.901 133.42C171.765 133.851 172.565 133.98 173.3 133.807C174.034 133.634 174.574 133.202 174.92 132.511L178.811 134.449C178.38 135.528 177.948 136.283 177.516 136.715C176.566 137.751 175.378 138.399 173.952 138.659C172.526 138.919 171.208 138.748 169.997 138.145L161.825 134.075C164.941 139.077 166.696 144.64 167.09 150.765C167.484 156.891 166.43 162.457 163.927 167.463C161.597 172.124 158.488 175.966 154.601 178.989C150.627 181.968 146.263 184.107 141.51 185.406C136.713 186.574 131.83 186.945 126.859 186.518C121.931 186.004 117.305 184.671 112.981 182.517ZM153.134 130.07L129.914 118.507C125.764 117.95 121.594 118.406 117.402 119.876C113.125 121.303 109.28 123.377 105.867 126.098C102.369 128.775 99.7347 131.883 97.9656 135.422C95.8944 139.565 94.8822 143.751 94.9289 147.978C95.0188 152.119 95.9298 156.131 97.6619 160.012C99.394 163.893 101.796 167.406 104.867 170.553C107.895 173.57 111.355 176.048 115.247 177.986C119.311 180.01 123.548 181.258 127.957 181.728C132.323 182.07 136.623 181.678 140.858 180.553C145.049 179.298 148.808 177.397 152.134 174.849C155.416 172.172 158.05 168.848 160.035 164.878C161.286 162.375 162.127 159.505 162.556 156.269C162.943 152.904 162.853 149.518 162.289 146.11C161.767 142.617 160.749 139.468 159.234 136.666C157.632 133.82 155.599 131.621 153.134 130.07Z" fill="#FF4A00"/>
<path d="M81.7634 267.231L40.3136 256.149L41.589 251.397L82.4786 262.329C92.1876 264.925 99.8478 265.276 105.459 263.381C111.096 261.392 114.789 257.137 116.54 250.615C117.715 246.235 117.86 241.78 116.975 237.25C116.115 232.626 114.324 228.302 111.601 224.279C108.786 220.231 105.278 216.896 101.079 214.276L54.868 201.921L56.1433 197.169L121.679 214.69C122.612 214.94 123.422 214.907 124.107 214.59C124.792 214.274 125.235 213.744 125.435 212.998L129.636 214.121C129.461 214.774 129.311 215.333 129.186 215.799C129.086 216.171 128.951 216.485 128.783 216.739C128.178 217.876 127.249 218.726 125.997 219.29C124.677 219.736 123.317 219.772 121.916 219.397L109.836 216.317C114.96 221.083 118.5 226.722 120.453 233.237C122.407 239.751 122.509 246.269 120.758 252.791C118.707 260.432 114.403 265.472 107.845 267.913C101.286 270.354 92.5926 270.126 81.7634 267.231Z" fill="#FF4A00"/>
<path d="M13.8453 372.369C12.1113 374.566 10.671 376.771 9.52469 378.982C8.37835 381.192 7.53961 383.505 7.00848 385.92C6.47735 388.335 6.206 390.859 6.19443 393.492C6.08719 396.139 6.25347 398.99 6.69328 402.045C8.24634 412.834 11.4301 420.369 16.2446 424.649C21.0592 428.928 26.9103 430.574 33.7982 429.587C38.4857 428.914 42.0177 427.336 44.3939 424.851C46.7701 422.367 48.4416 418.716 49.4081 413.9C50.2791 409.097 50.9576 402.958 51.4437 395.482C51.9023 387.815 52.7444 381.116 53.9699 375.386C55.1955 369.655 57.3172 365.063 60.3351 361.61C63.3529 358.156 67.8753 355.997 73.9022 355.133C78.2071 354.515 82.1573 354.826 85.753 356.065C89.2392 357.221 92.3093 359.217 94.9631 362.053C97.6169 364.888 99.8408 368.467 101.635 372.79C103.319 377.032 104.553 381.873 105.337 387.316C106.12 392.758 106.322 397.894 105.943 402.724C105.469 407.567 104.379 412.206 102.674 416.641C100.969 421.076 98.6081 425.361 95.5908 429.497L91.427 427.024C93.5844 424.376 95.4273 421.578 96.9558 418.63C98.3748 415.6 99.4863 412.469 100.29 409.235C101.08 405.906 101.563 402.475 101.738 398.941C101.803 395.326 101.561 391.609 101.011 387.79C99.6367 378.242 96.7881 371 92.4651 366.065C88.0327 361.049 82.3247 359.041 75.3412 360.043C70.4623 360.742 66.7597 362.491 64.2333 365.29C61.6113 368.102 59.742 372.073 58.6253 377.203C57.413 382.347 56.5843 388.8 56.1395 396.563C55.6671 404.134 54.8932 410.628 53.8178 416.045C52.7286 421.366 50.7501 425.597 47.8823 428.736C45.0008 431.781 40.7858 433.701 35.2372 434.496C29.2104 435.361 23.9271 434.608 19.3875 432.238C14.7522 429.881 10.9974 426.181 8.1231 421.135C5.15315 416.104 3.15279 410.008 2.12199 402.847C1.48978 398.455 1.34302 394.383 1.68174 390.631C2.02045 386.879 2.83089 383.352 4.11304 380.05C5.38146 376.652 7.25135 373.363 9.72271 370.183L13.8453 372.369Z" fill="#FF4A00"/>
<path d="M99.6758 294.065C99.7581 294.265 100.135 295.066 100.808 296.469C101.384 297.865 101.932 299.646 102.452 301.812C102.882 303.874 102.999 306.252 102.802 308.946C102.619 311.447 101.968 313.721 100.849 315.767C99.7301 317.813 98.2092 319.395 96.2862 320.512C94.2669 321.622 91.956 322.082 89.3534 321.893L30.2182 317.581L29.4365 328.259L25.099 327.943L25.8807 317.264L0 315.377L0.359158 310.471L26.2398 312.358L27.5392 294.608L31.8767 294.924L30.5774 312.674L88.9897 316.934C91.7991 316.945 93.9971 316.041 95.5838 314.223C97.1705 312.404 98.0554 310.244 98.2385 307.743C98.4709 304.568 98.1379 301.836 97.2396 299.546C96.2519 297.152 95.6688 295.852 95.4901 295.646L99.6758 294.065Z" fill="#FF4A00"/>
</svg>
