<svg width="37" height="26" viewBox="0 0 37 26" fill="none" xmlns="http://www.w3.org/2000/svg">
<path d="M15.8472 25.8901C12.3179 25.5 11.1761 23.479 11.1761 21.3871C11.1761 19.2242 12.4563 17.8769 12.4563 15.7495C12.4563 14.4021 11.8335 13.3739 9.54985 13.3739H7.50839L2.62967 25.5355H0.968825C0.38061 23.5854 0 21.7062 0 19.8624C0 10.1473 6.85098 6.45986 8.82323 1.07046C10.0343 1.07046 13.2867 0.822266 16.0548 0.822266C20.4491 0.822266 22.7328 2.80783 22.7328 5.92801C22.7328 10.2537 17.9579 12.3457 13.3905 12.6648C16.9544 13.2675 18.2347 15.1113 18.2347 17.3805C18.2347 21.1389 14.8784 22.0608 14.8784 23.6563C14.8784 24.4009 15.6742 24.6845 16.3316 24.72L15.8472 25.8901ZM10.8301 2.77238C10.3111 5.82164 9.30764 8.76454 8.23501 11.6011H9.93046C14.394 11.6011 15.2244 10.5019 16.4354 8.05541C17.2312 6.45986 17.8195 5.99893 17.8195 4.61612C17.8195 3.51696 17.0582 2.55964 14.7054 2.55964C13.3905 2.55964 12.4217 2.59509 10.8301 2.77238Z" fill="#3E76AA"/>
<path d="M31.9404 20.217C32.2172 23.9754 29.6913 25.8901 26.0929 25.8901C22.01 25.8901 19.7955 23.94 19.7955 20.1461C19.7955 13.693 26.7849 8.87091 31.4214 8.87091C34.4663 8.87091 36.1271 10.1473 36.1271 12.5584C36.1271 14.5794 34.6393 16.104 32.5978 16.9905C30.6602 17.8414 28.2727 17.9832 25.9199 18.0187C24.1206 21.1034 23.1864 20.8552 23.1864 22.5217C23.1864 23.6918 24.2936 24.4009 25.9545 24.4009C28.9993 24.4009 30.5218 22.9826 30.6948 20.217H31.9404ZM30.591 9.89915C28.3073 9.89915 28.8609 12.2393 26.5081 17.0259C28.1343 17.0259 29.1723 16.4941 29.899 15.8204C30.591 15.1467 30.937 14.2958 31.1792 13.6575C31.9404 11.5302 31.975 9.89915 30.591 9.89915Z" fill="#3E76AA"/>
</svg>
