<svg width="63" height="34" viewBox="0 0 63 34" fill="none" xmlns="http://www.w3.org/2000/svg">
<path d="M31.4303 33.5365C26.7947 33.0381 25.295 30.4553 25.295 27.7819C25.295 25.0179 26.9765 23.296 26.9765 20.5773C26.9765 18.8555 26.1585 17.5414 23.159 17.5414H20.4777L14.0697 33.0834H11.8883C11.1157 30.5912 10.6158 28.1897 10.6158 25.8335C10.6158 13.418 19.6142 8.7056 22.2046 1.81821C23.7953 1.81821 28.0672 1.50102 31.703 1.50102C37.4747 1.50102 40.4741 4.03849 40.4741 8.02593C40.4741 13.554 34.2025 16.2274 28.2036 16.6352C32.8846 17.4055 34.5661 19.7617 34.5661 22.6616C34.5661 27.4647 30.1578 28.6428 30.1578 30.6818C30.1578 31.6334 31.203 31.9959 32.0665 32.0412L31.4303 33.5365ZM24.8405 3.99317C24.1588 7.88999 22.8409 11.6509 21.4321 15.2758H23.6589C29.5215 15.2758 30.6122 13.8711 32.2029 10.7446C33.2481 8.7056 34.0207 8.11655 34.0207 6.34939C34.0207 4.94472 33.0209 3.7213 29.9305 3.7213C28.2036 3.7213 26.9311 3.76662 24.8405 3.99317Z" fill="#FFFEFB"/>
<path d="M52.5679 26.2866C52.9314 31.0896 49.6138 33.5365 44.8874 33.5365C39.5247 33.5365 36.6161 31.0443 36.6161 26.196C36.6161 17.9492 45.7963 11.7868 51.8862 11.7868C55.8855 11.7868 58.0669 13.418 58.0669 16.4992C58.0669 19.082 56.1127 21.0304 53.4313 22.1632C50.8863 23.2507 47.7505 23.4319 44.6602 23.4773C42.297 27.4194 41.0699 27.1022 41.0699 29.2319C41.0699 30.7271 42.5242 31.6334 44.7056 31.6334C48.7049 31.6334 50.7046 29.8209 50.9318 26.2866H52.5679ZM50.7954 13.1008C47.796 13.1008 48.5231 16.0914 45.4328 22.2085C47.5687 22.2085 48.9321 21.5288 49.8865 20.6679C50.7954 19.807 51.2499 18.7195 51.568 17.9039C52.5679 15.1852 52.6133 13.1008 50.7954 13.1008Z" fill="#FFFEFB"/>
<path d="M55.5812 30.1381C55.5812 28.3709 56.8991 26.7397 59.126 26.7397C61.1711 26.7397 62.5345 28.4162 62.5345 30.1834C62.5345 32.1771 61.2165 33.6724 59.126 33.6724C56.9446 33.6724 55.5812 32.1318 55.5812 30.1381Z" fill="#FFFEFB"/>
<path d="M18.2306 4.24019C18.0452 4.57461 17.8027 4.85242 17.5032 5.0736C17.2037 5.29478 16.874 5.44892 16.5141 5.53604C16.1478 5.61961 15.7759 5.63716 15.3985 5.5887C15.0147 5.53668 14.6486 5.41468 14.3003 5.2227C13.9455 5.02715 13.644 4.78118 13.3957 4.48478C13.1509 4.18194 12.9698 3.85542 12.8524 3.50521C12.7285 3.15144 12.6809 2.78931 12.7094 2.41881C12.738 2.0483 12.8432 1.69905 13.0251 1.37106C13.2105 1.03663 13.4512 0.762042 13.7471 0.547294C14.0466 0.326116 14.3795 0.173745 14.7459 0.0901821C15.1094 -0.00336764 15.483 -0.024135 15.8668 0.0278799C16.2542 0.0734637 16.6253 0.194026 16.9801 0.389568C17.3284 0.581554 17.6267 0.82575 17.875 1.12215C18.1169 1.415 18.298 1.74153 18.4183 2.10172C18.5357 2.45193 18.5801 2.81229 18.5516 3.18279C18.5266 3.54686 18.4196 3.89933 18.2306 4.24019ZM14.4918 4.90003C14.9111 5.13113 15.3466 5.24941 15.7984 5.25489C16.2436 5.25681 16.6569 5.15709 17.038 4.95573C17.4127 4.75081 17.7052 4.45863 17.9156 4.07918C18.1296 3.6933 18.2207 3.28591 18.189 2.85701C18.1573 2.4281 18.019 2.0244 17.7741 1.64591C17.5263 1.25743 17.196 0.949418 16.7832 0.721878C16.3639 0.490784 15.9266 0.375713 15.4713 0.376666C15.0196 0.371188 14.6031 0.469131 14.222 0.670495C13.8409 0.87186 13.5451 1.16227 13.3347 1.54171C13.1279 1.91473 13.0418 2.32068 13.0763 2.75957C13.108 3.18848 13.2478 3.59717 13.4956 3.98565C13.7405 4.36414 14.0726 4.66894 14.4918 4.90003Z" fill="#FFFEFB"/>
<path d="M14.9639 8.63833L10.0694 5.63169L10.2666 5.31261L15.1611 8.31925L14.9639 8.63833ZM8.88341 4.90316L8.09275 4.41747L8.28992 4.09839L9.08058 4.58408L8.88341 4.90316Z" fill="#FFFEFB"/>
<path d="M8.61612 13.9045C8.13468 13.665 7.74382 13.3433 7.44353 12.9393C7.14654 12.5287 6.96488 12.0852 6.89856 11.6088C6.82564 11.129 6.90271 10.6623 7.12977 10.2086C7.36011 9.74828 7.68944 9.40293 8.11775 9.17253C8.53946 8.93885 8.96785 8.80704 9.40292 8.7771L6.15815 7.16288L6.32598 6.82753L13.0332 10.1642C13.0991 10.197 13.1601 10.2068 13.2161 10.1937C13.2721 10.1805 13.3133 10.1476 13.3396 10.095L13.6364 10.2426C13.6035 10.3248 13.5706 10.3823 13.5377 10.4152C13.4652 10.4942 13.3746 10.5435 13.2659 10.5633C13.1571 10.5831 13.0566 10.5701 12.9642 10.5241L12.341 10.2141C12.5786 10.5951 12.7125 11.019 12.7425 11.4856C12.7726 11.9522 12.6922 12.3763 12.5013 12.7576C12.3236 13.1127 12.0866 13.4054 11.7901 13.6357C11.487 13.8627 11.1543 14.0257 10.7918 14.1245C10.426 14.2136 10.0535 14.2418 9.67445 14.2093C9.29865 14.1702 8.94588 14.0686 8.61612 13.9045ZM11.6782 9.90901L9.90745 9.02809C9.59098 8.98563 9.27293 9.0204 8.95329 9.1324C8.62706 9.24112 8.33384 9.39911 8.07361 9.60637C7.80679 9.81035 7.60593 10.0471 7.47101 10.3167C7.31306 10.6324 7.23586 10.9512 7.23943 11.2733C7.24628 11.5888 7.31576 11.8943 7.44785 12.19C7.57995 12.4857 7.7631 12.7534 7.99733 12.9931C8.22826 13.2229 8.49211 13.4117 8.78888 13.5593C9.09885 13.7135 9.42196 13.8085 9.75819 13.8444C10.0911 13.8704 10.4191 13.8406 10.742 13.7549C11.0617 13.6593 11.3483 13.5145 11.602 13.3204C11.8523 13.1164 12.0532 12.8632 12.2045 12.5607C12.3 12.37 12.364 12.1514 12.3968 11.9049C12.4263 11.6485 12.4194 11.3906 12.3764 11.131C12.3366 10.8648 12.2589 10.625 12.1434 10.4114C12.0213 10.1946 11.8662 10.0272 11.6782 9.90901Z" fill="#FFFEFB"/>
<path d="M6.2354 20.3582L3.07438 19.5139L3.17164 19.1519L6.28995 19.9848C7.03037 20.1825 7.61455 20.2092 8.04248 20.0648C8.47232 19.9134 8.75399 19.5892 8.88749 19.0923C8.97712 18.7587 8.98819 18.4193 8.92068 18.0741C8.85509 17.7219 8.71849 17.3925 8.51089 17.086C8.29616 16.7776 8.02868 16.5236 7.70843 16.3239L4.18432 15.3827L4.28158 15.0207L9.27942 16.3555C9.35061 16.3745 9.41234 16.372 9.46459 16.3479C9.51684 16.3238 9.55059 16.2834 9.56585 16.2266L9.88623 16.3122C9.87288 16.3619 9.86143 16.4045 9.8519 16.4399C9.84427 16.4683 9.83403 16.4922 9.82119 16.5116C9.77504 16.5982 9.70423 16.663 9.60875 16.7059C9.50806 16.7399 9.40432 16.7426 9.29753 16.7141L8.37626 16.4795C8.76706 16.8425 9.03696 17.2722 9.18595 17.7684C9.33494 18.2647 9.34269 18.7612 9.20919 19.2581C9.05281 19.8402 8.72455 20.2242 8.2244 20.4101C7.72426 20.5961 7.06126 20.5788 6.2354 20.3582Z" fill="#FFFEFB"/>
<path d="M1.05587 28.3678C0.923623 28.5352 0.81379 28.7031 0.726368 28.8716C0.638946 29.04 0.574982 29.2162 0.534478 29.4002C0.493973 29.5841 0.473279 29.7764 0.472397 29.977C0.464219 30.1786 0.4769 30.3958 0.51044 30.6286C0.628879 31.4505 0.871679 32.0245 1.23884 32.3506C1.606 32.6766 2.05222 32.802 2.5775 32.7267C2.93498 32.6755 3.20433 32.5553 3.38555 32.366C3.56676 32.1767 3.69423 31.8986 3.76794 31.5317C3.83436 31.1658 3.88611 30.6981 3.92318 30.1286C3.95815 29.5445 4.02237 29.0342 4.11583 28.5976C4.20929 28.1611 4.3711 27.8112 4.60125 27.5481C4.83139 27.285 5.17628 27.1205 5.63589 27.0547C5.96419 27.0077 6.26545 27.0313 6.53966 27.1257C6.80552 27.2138 7.03965 27.3659 7.24203 27.5819C7.44442 27.7979 7.61402 28.0706 7.75083 28.3999C7.87929 28.723 7.9734 29.0919 8.03314 29.5065C8.09288 29.9211 8.10831 30.3123 8.07942 30.6803C8.04323 31.0492 7.96012 31.4026 7.8301 31.7405C7.70008 32.0783 7.52001 32.4048 7.2899 32.7199L6.97236 32.5315C7.13689 32.3298 7.27744 32.1166 7.394 31.892C7.50222 31.6612 7.58698 31.4227 7.64828 31.1763C7.70854 30.9227 7.74533 30.6613 7.75867 30.3921C7.76366 30.1167 7.74519 29.8335 7.70327 29.5426C7.59845 28.8152 7.38121 28.2635 7.05153 27.8876C6.71351 27.5054 6.27821 27.3525 5.74564 27.4287C5.37357 27.482 5.0912 27.6153 4.89854 27.8285C4.69858 28.0427 4.55602 28.3453 4.47086 28.7361C4.3784 29.128 4.31521 29.6196 4.28128 30.2109C4.24526 30.7877 4.18624 31.2825 4.10423 31.6951C4.02116 32.1005 3.87028 32.4228 3.65158 32.662C3.43183 32.8939 3.11039 33.0402 2.68725 33.1008C2.22763 33.1666 1.82472 33.1093 1.47852 32.9287C1.12502 32.7492 0.838677 32.4673 0.61948 32.0829C0.392987 31.6996 0.240436 31.2352 0.161827 30.6896C0.113613 30.355 0.102421 30.0448 0.128252 29.759C0.154083 29.4732 0.215888 29.2045 0.313667 28.9529C0.410399 28.6941 0.552999 28.4435 0.741469 28.2012L1.05587 28.3678Z" fill="#FFFEFB"/>
<path d="M7.60143 22.4024C7.60771 22.4176 7.63649 22.4787 7.68778 22.5856C7.73171 22.6919 7.7735 22.8276 7.81314 22.9926C7.84597 23.1497 7.85487 23.3309 7.83983 23.5361C7.82586 23.7267 7.77622 23.8999 7.6909 24.0558C7.60557 24.2116 7.48959 24.3321 7.34294 24.4172C7.18894 24.5018 7.01271 24.5369 6.81423 24.5224L2.30449 24.1939L2.24488 25.0074L1.91409 24.9833L1.9737 24.1698L0 24.026L0.0273899 23.6522L2.00109 23.796L2.10018 22.4438L2.43097 22.4679L2.33188 23.8201L6.78649 24.1446C7.00074 24.1455 7.16837 24.0766 7.28937 23.9381C7.41037 23.7995 7.47786 23.635 7.49182 23.4444C7.50954 23.2026 7.48415 22.9944 7.41564 22.82C7.34032 22.6376 7.29585 22.5386 7.28222 22.5229L7.60143 22.4024Z" fill="#FFFEFB"/>
</svg>
